<svg xmlns="http://www.w3.org/2000/svg" viewBox="0 0 24 24" width="24" height="24">
  <!-- 主用户头像（大圆形） -->
  <path fill="white" d="M12 2C6.48 2 2 6.48 2 12s4.48 10 10 10 10-4.48 10-10S17.52 2 12 2zm0 18c-4.41 0-8-3.59-8-8s3.59-8 8-8 8 3.59 8 8-3.59 8-8 8z"/>
  <!-- 左侧附属用户头像（小圆形） -->
  <path fill="white" d="M7 8c0 1.66 1.34 3 3 3s3-1.34 3-3-1.34-3-3-3-3 1.34-3 3zm10 8.5c0-2.67-3.07-4.5-6-4.5s-6 1.83-6 4.5V18h12v-1.5z"/>
  <!-- 右侧附属用户头像（小圆形） -->
  <path fill="white" d="M16 12c1.66 0 3-1.34 3-3s-1.34-3-3-3-3 1.34-3 3 1.34 3 3 3z"/>
</svg>
